<?xml version="1.0" standalone="no"?>
<!DOCTYPE svg PUBLIC "-//W3C//DTD SVG 20010904//EN"
 "http://www.w3.org/TR/2001/REC-SVG-20010904/DTD/svg10.dtd">
<svg version="1.0" xmlns="http://www.w3.org/2000/svg"
 width="7016.000000pt" height="5968.000000pt" viewBox="0 0 7016.000000 5968.000000"
 preserveAspectRatio="xMidYMid meet">

<g transform="translate(0.000000,5968.000000) scale(0.100000,-0.100000)"
fill="#000000" stroke="none">
<path d="M54420 59670 c-36 -4 -145 -24 -243 -44 -239 -49 -684 -124 -1522
-256 -903 -143 -1677 -273 -2185 -365 -1700 -309 -2857 -611 -3552 -925 -164
-74 -916 -460 -1608 -825 -1409 -744 -2210 -1118 -2990 -1398 -921 -331 -2501
-812 -4419 -1347 -467 -130 -1147 -314 -1196 -324 -16 -3 -210 -13 -430 -21
-220 -8 -476 -20 -570 -25 -740 -45 -1116 -122 -1165 -239 -29 -70 47 -143
255 -246 340 -167 690 -238 1240 -252 280 -6 524 3 1145 47 750 52 647 49
3135 105 842 19 1641 37 1778 41 l247 7 0 -249 c-1 -709 -30 -3877 -35 -3882
-4 -4 -61 -8 -128 -10 -67 -1 -486 -9 -932 -17 -2137 -40 -2876 -63 -3330
-100 -891 -74 -1435 -260 -1811 -617 -134 -128 -271 -323 -789 -1128 -612
-950 -913 -1369 -1169 -1626 -143 -142 -200 -175 -341 -199 -330 -54 -1295
-58 -2715 -10 -228 8 -597 19 -820 25 -487 13 -539 18 -639 65 -258 123 -436
382 -816 1190 -216 460 -244 509 -341 609 -276 282 -819 471 -1531 530 -268
23 -511 28 -753 16 -393 -19 -608 -48 -1035 -140 -148 -32 -877 -187 -1620
-345 -4152 -880 -6456 -1387 -7825 -1720 -568 -138 -620 -153 -3035 -821
-3216 -891 -4330 -1195 -5065 -1383 -465 -119 -628 -146 -837 -139 -105 4
-141 9 -201 30 -142 51 -230 144 -323 345 -28 59 -86 180 -129 268 -43 88
-105 232 -138 320 -239 638 -690 2138 -922 3065 -88 353 -116 489 -130 630 -6
63 -25 194 -42 290 -51 300 -66 406 -79 553 -13 161 -7 406 16 597 39 328 0
507 -139 645 -104 103 -229 154 -435 176 -199 21 -397 -1 -801 -91 -146 -32
-476 -104 -735 -160 -1104 -237 -1609 -356 -1841 -432 -232 -75 -430 -228
-612 -472 -243 -324 -319 -689 -215 -1021 14 -44 51 -132 83 -195 133 -264
309 -789 485 -1450 204 -766 270 -956 495 -1420 192 -394 242 -535 379 -1065
39 -149 102 -389 140 -534 115 -432 147 -613 139 -796 -13 -272 -140 -450
-422 -590 -130 -64 -218 -91 -405 -126 -89 -16 -188 -39 -219 -51 -106 -40
-196 -159 -257 -343 -43 -128 -27 -205 60 -290 149 -144 523 -246 1295 -354
250 -35 524 -69 1175 -146 590 -70 1095 -133 1520 -190 758 -102 1694 -199
3455 -359 6071 -554 18550 -1517 23315 -1801 1512 -90 2662 -116 5095 -116
1467 0 2433 8 3750 31 5356 92 11278 345 14205 605 1604 143 3001 375 4490
746 1137 284 2076 579 3395 1067 223 82 493 178 600 212 107 34 376 127 598
206 943 337 1135 385 1453 364 237 -16 398 -76 527 -195 135 -125 223 -284
312 -565 119 -374 275 -570 452 -570 201 0 322 242 358 710 5 69 15 375 22
680 13 604 3 1882 -27 3395 -9 424 -14 867 -13 985 l3 215 523 3 c413 2 524 0
527 -10 5 -13 615 -3979 909 -5908 91 -597 173 -1116 182 -1155 60 -262 257
-475 522 -568 73 -26 106 -31 207 -35 143 -5 205 6 304 53 214 103 309 339
255 630 -118 640 -302 2119 -819 6595 -402 3475 -512 4424 -601 5180 -244
2073 -393 3228 -440 3415 -74 290 -274 536 -537 661 -110 51 -184 67 -302 62
-89 -3 -109 -7 -166 -35 -88 -44 -134 -85 -189 -168 -96 -147 -135 -336 -127
-615 4 -130 95 -1060 356 -3620 193 -1895 351 -3454 351 -3465 0 -20 -15 -22
-482 -53 -266 -18 -501 -36 -524 -38 l-41 -6 -6 209 c-9 326 -16 374 -172
1333 -293 1806 -381 2321 -531 3100 -63 327 -97 461 -152 588 -116 269 -326
459 -562 508 -140 30 -322 7 -457 -56 -246 -114 -405 -324 -434 -572 -10 -87
-7 -121 39 -513 28 -231 47 -423 44 -426 -6 -6 -9494 -840 -9499 -835 -4 4
-62 592 -107 1091 -212 2313 -295 3872 -235 4394 17 153 89 379 138 433 21 24
43 33 116 48 114 25 193 64 314 155 163 123 441 413 606 633 179 238 291 495
331 757 19 120 14 353 -10 460 -111 501 -478 863 -979 966 -114 23 -331 33
-437 19z m-840 -4527 c0 -16 11 -955 25 -2087 14 -1133 24 -2060 22 -2061 -21
-16 -280 -164 -442 -253 -569 -311 -1166 -582 -1611 -730 -185 -61 -351 -108
-358 -101 -3 2 2 816 9 1809 8 993 15 1940 15 2105 l1 300 132 100 c434 331
747 491 1366 700 258 86 781 241 829 244 7 1 12 -11 12 -26z m-2385 -3144 c-9
-1152 -19 -2097 -23 -2100 -9 -9 -199 -44 -337 -63 -643 -90 -2142 -187 -4165
-271 -965 -40 -1138 -44 -2380 -65 -652 -11 -1357 -23 -1568 -27 l-383 -6 6
109 c2 60 10 989 16 2064 7 1075 13 1957 15 1958 2 4 153 8 1534 42 3927 97
6287 183 6710 245 143 21 319 78 460 148 69 34 126 62 128 61 1 -1 -5 -943
-13 -2095z"/>
<path d="M53817 38059 c-428 -38 -867 -174 -1225 -380 -257 -148 -453 -298
-658 -503 -245 -245 -423 -493 -574 -801 -162 -327 -245 -603 -297 -975 -24
-175 -24 -575 1 -755 93 -688 374 -1266 850 -1754 467 -477 1057 -778 1731
-883 120 -19 183 -22 435 -22 316 -1 401 7 655 60 723 153 1391 591 1825 1197
310 433 494 911 556 1442 23 196 15 615 -15 800 -130 801 -543 1493 -1177
1971 -460 346 -993 551 -1574 603 -129 12 -400 12 -533 0z"/>
<path d="M6985 23084 c-357 -79 -587 -443 -510 -809 39 -184 183 -368 356
-453 194 -96 415 -96 609 0 120 59 240 178 298 298 79 162 92 344 37 518 -61
194 -239 371 -435 433 -88 28 -259 34 -355 13z"/>
<path d="M9920 23085 c-86 -19 -212 -83 -280 -141 -165 -141 -243 -310 -243
-524 1 -118 19 -203 63 -289 85 -169 218 -286 396 -348 70 -24 94 -27 209 -28
109 0 142 4 205 23 205 64 379 235 443 437 18 58 22 93 22 210 0 121 -3 150
-24 214 -63 192 -232 362 -426 427 -100 33 -263 42 -365 19z"/>
<path d="M55500 21293 c-777 -44 -1456 -290 -1979 -716 -365 -298 -655 -664
-866 -1092 -147 -297 -233 -553 -300 -890 -67 -338 -90 -620 -82 -1020 8 -402
45 -700 127 -1034 255 -1033 916 -1831 1810 -2184 770 -304 1790 -302 2775 4
365 114 729 295 977 485 l58 45 0 1550 0 1549 -1095 0 -1095 0 0 -525 0 -525
480 0 480 0 0 -680 0 -680 -72 -54 c-195 -144 -418 -235 -693 -283 -124 -21
-502 -24 -645 -5 -411 55 -754 199 -1035 434 -430 359 -694 888 -777 1558 -21
168 -17 741 5 910 75 555 242 973 534 1335 371 461 887 706 1539 732 228 9
432 -24 681 -111 304 -106 670 -296 848 -440 l30 -24 258 495 c142 272 257
496 255 497 -2 2 -39 31 -83 66 -444 351 -974 551 -1584 599 -123 10 -413 12
-551 4z"/>
<path d="M48015 21240 c-121 -5 -404 -18 -630 -29 -225 -11 -479 -24 -562 -27
l-153 -7 0 -3463 0 -3464 640 0 640 0 0 1446 0 1447 123 -7 c207 -11 539 -26
598 -26 l56 0 924 -1430 924 -1429 712 -1 711 0 -960 1463 c-528 804 -989
1506 -1024 1560 l-64 98 32 11 c68 24 267 128 353 185 429 283 756 758 854
1240 35 168 44 294 38 493 -9 267 -39 447 -109 660 -222 677 -807 1095 -1728
1235 -312 47 -860 65 -1375 45z m870 -1125 c604 -68 910 -240 1019 -574 35
-106 46 -185 46 -338 0 -286 -61 -507 -184 -670 -174 -229 -553 -351 -1156
-370 -176 -5 -539 8 -627 24 l-33 5 0 959 0 958 33 6 c152 27 658 27 902 0z"/>
<path d="M65965 21240 c-121 -5 -404 -18 -630 -29 -225 -11 -479 -24 -562 -27
l-153 -7 0 -3463 0 -3464 640 0 640 0 0 1446 0 1447 123 -7 c207 -11 539 -26
598 -26 l56 0 924 -1430 924 -1429 712 -1 711 0 -960 1463 c-528 804 -989
1506 -1024 1560 l-64 98 32 11 c68 24 267 128 353 185 429 283 756 758 854
1240 35 168 44 294 38 493 -9 267 -39 447 -109 660 -222 677 -807 1095 -1728
1235 -312 47 -860 65 -1375 45z m870 -1125 c604 -68 910 -240 1019 -574 35
-106 46 -185 46 -338 0 -286 -61 -507 -184 -670 -174 -229 -553 -351 -1156
-370 -176 -5 -539 8 -627 24 l-33 5 0 959 0 958 33 6 c152 27 658 27 902 0z"/>
<path d="M30320 21234 c-52 -2 -225 -8 -385 -14 -505 -17 -1069 -41 -1092 -46
l-23 -4 0 -3460 0 -3460 1138 0 c1165 0 1296 4 1557 41 802 115 1450 513 1764
1084 92 168 153 349 192 571 30 170 33 531 5 719 -57 386 -190 692 -415 950
-170 196 -450 384 -744 500 -53 21 -94 42 -90 46 5 5 45 30 90 58 557 338 808
810 754 1416 -52 574 -298 972 -777 1261 -274 165 -597 265 -1034 319 -122 16
-705 27 -940 19z m780 -1048 c480 -82 713 -304 746 -709 13 -168 -33 -395
-106 -522 -130 -225 -374 -363 -745 -422 -90 -15 -173 -18 -450 -17 -187 0
-375 4 -417 8 l-78 8 0 829 0 829 68 1 c37 1 132 5 212 9 236 12 660 5 770
-14z m75 -2635 c635 -87 922 -313 1022 -810 26 -125 25 -458 -1 -596 -96 -509
-399 -766 -1016 -859 -285 -43 -591 -46 -1047 -10 l-83 7 0 1143 0 1144 163 3
c379 9 806 -1 962 -22z"/>
<path d="M1070 17715 l0 -3465 2180 0 2180 0 0 545 0 545 -1565 0 -1565 0 0
2920 0 2920 -615 0 -615 0 0 -3465z"/>
<path d="M6420 17715 l0 -3465 2185 0 2185 0 0 545 0 545 -1570 0 -1570 0 0
1040 0 1040 1120 0 1120 0 0 525 0 525 -1120 0 -1120 0 0 810 0 810 1570 0
1570 0 0 545 0 545 -2185 0 -2185 0 0 -3465z"/>
<path d="M11320 20635 l0 -545 1105 0 1105 0 0 -2920 0 -2920 615 0 615 0 0
2920 0 2920 1150 0 1150 0 0 545 0 545 -2870 0 -2870 0 0 -545z"/>
<path d="M17560 20635 l0 -545 1439 -2 1440 -3 -1440 -2715 -1439 -2715 0
-202 0 -203 2330 0 2330 0 0 545 0 545 -1498 2 -1498 3 1443 2714 1443 2714 0
204 0 203 -2275 0 -2275 0 0 -545z"/>
<path d="M23310 17715 l0 -3465 2190 0 2190 0 0 545 0 545 -1575 0 -1575 0 0
1040 0 1040 1125 0 1125 0 0 525 0 525 -1125 0 -1125 0 0 810 0 810 1575 0
1575 0 0 545 0 545 -2190 0 -2190 0 0 -3465z"/>
<path d="M34593 18648 c3 -2315 4 -2542 20 -2642 70 -456 195 -771 422 -1061
72 -91 232 -250 320 -317 441 -334 1015 -498 1750 -498 858 0 1539 236 2019
700 335 324 514 693 593 1225 15 99 17 354 20 2618 l4 2507 -616 0 -615 0 -3
-2432 c-3 -2675 1 -2478 -62 -2685 -112 -364 -383 -635 -760 -758 -301 -98
-688 -112 -992 -35 -194 49 -359 139 -500 273 -178 170 -283 361 -346 632 -21
90 -21 90 -24 2548 l-3 2457 -615 0 -615 0 3 -2532z"/>
<path d="M41170 17715 l0 -3465 2190 0 2190 0 0 545 0 545 -1575 0 -1575 0 0
1040 0 1040 1125 0 1125 0 0 525 0 525 -1125 0 -1125 0 0 810 0 810 1575 0
1575 0 0 545 0 545 -2190 0 -2190 0 0 -3465z"/>
<path d="M59120 17715 l0 -3465 2190 0 2190 0 0 545 0 545 -1575 0 -1575 0 0
1040 0 1040 1125 0 1125 0 0 525 0 525 -1125 0 -1125 0 0 810 0 810 1575 0
1575 0 0 545 0 545 -2190 0 -2190 0 0 -3465z"/>
<path d="M57713 11428 c-26 -46 -206 -357 -399 -693 l-351 -610 441 -3 c242
-1 446 0 452 2 7 3 222 278 480 613 257 334 496 645 532 691 l64 82 -586 0
-585 0 -48 -82z"/>
<path d="M21700 9663 c-777 -44 -1456 -290 -1979 -716 -365 -298 -655 -664
-866 -1092 -147 -297 -233 -553 -300 -890 -67 -338 -90 -620 -82 -1020 8 -402
45 -700 127 -1034 255 -1033 916 -1831 1810 -2184 770 -304 1790 -302 2775 4
365 114 729 295 977 485 l58 45 0 1550 0 1549 -1095 0 -1095 0 0 -525 0 -525
480 0 480 0 0 -680 0 -680 -72 -54 c-195 -144 -418 -235 -693 -283 -124 -21
-502 -24 -645 -5 -411 55 -754 199 -1035 434 -430 359 -694 888 -777 1558 -21
168 -17 741 5 910 75 555 242 973 534 1335 371 461 887 706 1539 732 228 9
432 -24 681 -111 304 -106 670 -296 848 -440 l30 -24 258 495 c142 272 257
496 255 497 -2 2 -39 31 -83 66 -444 351 -974 551 -1584 599 -123 10 -413 12
-551 4z"/>
<path d="M52115 9663 c-442 -35 -785 -149 -1100 -364 -333 -227 -581 -546
-699 -900 -157 -469 -114 -1054 110 -1500 56 -113 165 -274 251 -374 195 -224
485 -415 1155 -761 454 -234 664 -361 867 -524 264 -212 417 -456 467 -742 19
-108 14 -268 -11 -362 -94 -346 -408 -523 -965 -543 -483 -17 -955 130 -1435
446 -69 45 -92 56 -98 45 -24 -43 -446 -1078 -442 -1085 10 -15 167 -105 293
-168 474 -237 985 -344 1562 -328 752 21 1301 212 1750 607 346 306 548 718
579 1183 42 622 -161 1192 -568 1598 -219 218 -511 406 -1056 681 -143 72
-318 165 -390 206 -589 337 -893 660 -930 988 -15 133 33 347 106 471 52 88
190 221 276 266 193 101 417 135 703 108 405 -39 753 -170 1150 -434 l26 -16
186 527 c136 386 183 530 175 540 -20 24 -172 120 -266 167 -299 150 -664 234
-1146 265 -146 9 -454 11 -550 3z"/>
<path d="M32165 9610 c-121 -5 -404 -18 -630 -29 -225 -11 -479 -24 -562 -27
l-153 -7 0 -3463 0 -3464 640 0 640 0 0 1446 0 1447 123 -7 c207 -11 539 -26
598 -26 l56 0 924 -1430 924 -1429 1299 2 1299 2 371 1847 c204 1016 374 1849
377 1852 3 3 318 -849 699 -1894 l695 -1900 221 0 221 0 694 1900 c382 1045
696 1900 699 1900 3 0 162 -815 354 -1811 192 -996 353 -1831 358 -1855 l10
-44 594 0 c327 0 594 4 594 8 0 4 -317 1562 -705 3461 -388 1899 -705 3455
-705 3457 0 3 -147 3 -326 2 l-327 -3 -731 -2324 c-661 -2100 -732 -2320 -742
-2295 -6 16 -344 1063 -750 2326 l-739 2298 -327 0 -328 0 -5 -22 c-3 -13
-316 -1566 -695 -3452 -380 -1887 -692 -3431 -693 -3432 -2 -2 -1735 2631
-1969 2993 l-68 104 32 11 c68 24 267 128 353 185 429 283 756 758 854 1240
35 168 44 294 38 493 -9 267 -39 447 -109 660 -222 677 -807 1095 -1728 1235
-312 47 -860 65 -1375 45z m870 -1125 c604 -68 910 -240 1019 -574 35 -106 46
-185 46 -338 0 -286 -61 -507 -184 -670 -174 -229 -553 -351 -1156 -370 -176
-5 -539 8 -627 24 l-33 5 0 959 0 958 33 6 c152 27 658 27 902 0z"/>
<path d="M5090 6085 l0 -3465 615 0 615 0 0 1585 0 1585 1220 0 1220 0 0 525
0 525 -1220 0 -1220 0 0 810 0 810 1670 0 1670 0 0 545 0 545 -2285 0 -2285 0
0 -3465z"/>
<path d="M10740 6085 l0 -3465 2180 0 2180 0 0 545 0 545 -1565 0 -1565 0 0
2920 0 2920 -615 0 -615 0 0 -3465z"/>
<path d="M16120 6085 l0 -3465 615 0 615 0 0 3465 0 3465 -615 0 -615 0 0
-3465z"/>
<path d="M25320 6085 l0 -3465 2190 0 2190 0 0 545 0 545 -1575 0 -1575 0 0
1040 0 1040 1125 0 1125 0 0 525 0 525 -1125 0 -1125 0 0 810 0 810 1575 0
1575 0 0 545 0 545 -2190 0 -2190 0 0 -3465z"/>
<path d="M43973 7018 c3 -2315 4 -2542 20 -2642 70 -456 195 -771 422 -1061
72 -91 232 -250 320 -317 441 -334 1015 -498 1750 -498 858 0 1539 236 2019
700 335 324 514 693 593 1225 15 99 17 354 20 2618 l4 2507 -616 0 -615 0 -3
-2432 c-3 -2675 1 -2478 -62 -2685 -112 -364 -383 -635 -760 -758 -301 -98
-688 -112 -992 -35 -194 49 -359 139 -500 273 -178 170 -283 361 -346 632 -21
90 -21 90 -24 2548 l-3 2457 -615 0 -615 0 3 -2532z"/>
<path d="M55500 6085 l0 -3465 2185 0 2185 0 0 545 0 545 -1570 0 -1570 0 0
1040 0 1040 1120 0 1120 0 0 525 0 525 -1120 0 -1120 0 0 810 0 810 1570 0
1570 0 0 545 0 545 -2185 0 -2185 0 0 -3465z"/>
<path d="M61020 6085 l0 -3465 2190 0 2190 0 0 545 0 545 -1575 0 -1575 0 0
1040 0 1040 1125 0 1125 0 0 525 0 525 -1125 0 -1125 0 0 810 0 810 1575 0
1575 0 0 545 0 545 -2190 0 -2190 0 0 -3465z"/>
</g>
</svg>
